<svg id="Layer_1" data-name="Layer 1" xmlns="http://www.w3.org/2000/svg" viewBox="0 0 758.04 250"><defs><style>.cls-1{fill:#4a9462;}.cls-2{fill:#6f7271;}</style></defs><path class="cls-1" d="M0,0V246.48H148.38L88,78h52.44l35.74,112.75L212,78h34.53V0Z"/><path class="cls-2" d="M244.46,162.38c0-65.48,50-87.94,84.78-87.94s77.5,17.4,77.5,93.95V176H295.07c2.53,27.84,18,38.59,39.23,38.59,19.93,0,38.59-9.81,50-20.24l19.61,30.36c-19.61,16.77-44,25.31-73.39,25.31C286.53,250,244.46,227.54,244.46,162.38Zm116.73-16.45c-2.54-23.73-13.29-35.11-32.27-35.11-15.82,0-29.42,10.43-33.21,35.11Z"/><path class="cls-2" d="M422.23,246.52V77.92h50.93v26.57c10.13-13.29,28.79-30,58.21-30,28.47,0,49,14.23,49,49V246.52H529.79V139.6c0-15.18-5.7-23.09-19.93-23.09-13.6,0-25.31,7-36.7,16.76V246.52Z"/><path class="cls-2" d="M596.71,203.5c0-38.91,32.9-60.42,106.92-66.43V133c0-12.34-6.32-20.25-22.77-20.25-21.51,0-39.86,8.86-55.36,20.88L604,104.49c16.77-15.19,42.07-30,84.14-30,46.19,0,65.17,22.77,65.17,66.11V205.4c0,20.24,1.26,32.58,4.74,41.12H707.43a81,81,0,0,1-3.8-24.67c-15.5,17.39-33.84,27.2-58.83,27.2C618.86,249.05,596.71,232.29,596.71,203.5Zm106.92-7.28V164.91c-40.17,4.11-57.25,14.23-57.25,29.73,0,10.76,7.59,16.14,18.66,16.14C682.76,210.78,695.09,204.76,703.63,196.22Z"/></svg>